<?xml version="1.0" encoding="utf-8" standalone="no"?>
<!DOCTYPE svg PUBLIC "-//W3C//DTD SVG 1.1//EN"
  "http://www.w3.org/Graphics/SVG/1.1/DTD/svg11.dtd">
<svg xmlns:xlink="http://www.w3.org/1999/xlink" width="653.857031pt" height="412.446437pt" viewBox="0 0 653.857031 412.446437" xmlns="http://www.w3.org/2000/svg" version="1.1">
 <metadata>
  <rdf:RDF xmlns:dc="http://purl.org/dc/elements/1.1/" xmlns:cc="http://creativecommons.org/ns#" xmlns:rdf="http://www.w3.org/1999/02/22-rdf-syntax-ns#">
   <cc:Work>
    <dc:type rdf:resource="http://purl.org/dc/dcmitype/StillImage"/>
    <dc:date>2025-03-03T17:21:01.618631</dc:date>
    <dc:format>image/svg+xml</dc:format>
    <dc:creator>
     <cc:Agent>
      <dc:title>Matplotlib v3.9.4, https://matplotlib.org/</dc:title>
     </cc:Agent>
    </dc:creator>
   </cc:Work>
  </rdf:RDF>
 </metadata>
 <defs>
  <style type="text/css">*{stroke-linejoin: round; stroke-linecap: butt}</style>
 </defs>
 <g id="figure_1">
  <g id="patch_1">
   <path d="M 0 412.446437 
L 653.857031 412.446437 
L 653.857031 0 
L 0 0 
z
" style="fill: #ffffff"/>
  </g>
  <g id="axes_1">
   <g id="patch_2">
    <path d="M 88.657031 361.340812 
L 646.657031 361.340812 
L 646.657031 28.700812 
L 88.657031 28.700812 
z
" style="fill: #ffffff"/>
   </g>
   <g id="matplotlib.axis_1">
    <g id="xtick_1">
     <g id="line2d_1">
      <path d="M 114.020668 361.340812 
L 114.020668 28.700812 
" clip-path="url(#p66e69ef2ee)" style="fill: none; stroke: #b0b0b0; stroke-width: 0.8; stroke-linecap: square"/>
     </g>
     <g id="line2d_2">
      <defs>
       <path id="m4c39d4d05f" d="M 0 0 
L 0 3.5 
" style="stroke: #000000; stroke-width: 0.8"/>
      </defs>
      <g>
       <use xlink:href="#m4c39d4d05f" x="114.020668" y="361.340812" style="stroke: #000000; stroke-width: 0.8"/>
      </g>
     </g>
     <g id="text_1">
      <!-- 0 -->
      <g transform="translate(108.612543 381.258156) scale(0.17 -0.17)">
       <defs>
        <path id="DejaVuSans-30" d="M 2034 4250 
Q 1547 4250 1301 3770 
Q 1056 3291 1056 2328 
Q 1056 1369 1301 889 
Q 1547 409 2034 409 
Q 2525 409 2770 889 
Q 3016 1369 3016 2328 
Q 3016 3291 2770 3770 
Q 2525 4250 2034 4250 
z
M 2034 4750 
Q 2819 4750 3233 4129 
Q 3647 3509 3647 2328 
Q 3647 1150 3233 529 
Q 2819 -91 2034 -91 
Q 1250 -91 836 529 
Q 422 1150 422 2328 
Q 422 3509 836 4129 
Q 1250 4750 2034 4750 
z
" transform="scale(0.015625)"/>
       </defs>
       <use xlink:href="#DejaVuSans-30"/>
      </g>
     </g>
    </g>
    <g id="xtick_2">
     <g id="line2d_3">
      <path d="M 183.510082 361.340812 
L 183.510082 28.700812 
" clip-path="url(#p66e69ef2ee)" style="fill: none; stroke: #b0b0b0; stroke-width: 0.8; stroke-linecap: square"/>
     </g>
     <g id="line2d_4">
      <g>
       <use xlink:href="#m4c39d4d05f" x="183.510082" y="361.340812" style="stroke: #000000; stroke-width: 0.8"/>
      </g>
     </g>
     <g id="text_2">
      <!-- 20 -->
      <g transform="translate(172.693832 381.258156) scale(0.17 -0.17)">
       <defs>
        <path id="DejaVuSans-32" d="M 1228 531 
L 3431 531 
L 3431 0 
L 469 0 
L 469 531 
Q 828 903 1448 1529 
Q 2069 2156 2228 2338 
Q 2531 2678 2651 2914 
Q 2772 3150 2772 3378 
Q 2772 3750 2511 3984 
Q 2250 4219 1831 4219 
Q 1534 4219 1204 4116 
Q 875 4013 500 3803 
L 500 4441 
Q 881 4594 1212 4672 
Q 1544 4750 1819 4750 
Q 2544 4750 2975 4387 
Q 3406 4025 3406 3419 
Q 3406 3131 3298 2873 
Q 3191 2616 2906 2266 
Q 2828 2175 2409 1742 
Q 1991 1309 1228 531 
z
" transform="scale(0.015625)"/>
       </defs>
       <use xlink:href="#DejaVuSans-32"/>
       <use xlink:href="#DejaVuSans-30" x="63.623047"/>
      </g>
     </g>
    </g>
    <g id="xtick_3">
     <g id="line2d_5">
      <path d="M 252.999497 361.340812 
L 252.999497 28.700812 
" clip-path="url(#p66e69ef2ee)" style="fill: none; stroke: #b0b0b0; stroke-width: 0.8; stroke-linecap: square"/>
     </g>
     <g id="line2d_6">
      <g>
       <use xlink:href="#m4c39d4d05f" x="252.999497" y="361.340812" style="stroke: #000000; stroke-width: 0.8"/>
      </g>
     </g>
     <g id="text_3">
      <!-- 40 -->
      <g transform="translate(242.183247 381.258156) scale(0.17 -0.17)">
       <defs>
        <path id="DejaVuSans-34" d="M 2419 4116 
L 825 1625 
L 2419 1625 
L 2419 4116 
z
M 2253 4666 
L 3047 4666 
L 3047 1625 
L 3713 1625 
L 3713 1100 
L 3047 1100 
L 3047 0 
L 2419 0 
L 2419 1100 
L 313 1100 
L 313 1709 
L 2253 4666 
z
" transform="scale(0.015625)"/>
       </defs>
       <use xlink:href="#DejaVuSans-34"/>
       <use xlink:href="#DejaVuSans-30" x="63.623047"/>
      </g>
     </g>
    </g>
    <g id="xtick_4">
     <g id="line2d_7">
      <path d="M 322.488912 361.340812 
L 322.488912 28.700812 
" clip-path="url(#p66e69ef2ee)" style="fill: none; stroke: #b0b0b0; stroke-width: 0.8; stroke-linecap: square"/>
     </g>
     <g id="line2d_8">
      <g>
       <use xlink:href="#m4c39d4d05f" x="322.488912" y="361.340812" style="stroke: #000000; stroke-width: 0.8"/>
      </g>
     </g>
     <g id="text_4">
      <!-- 60 -->
      <g transform="translate(311.672662 381.258156) scale(0.17 -0.17)">
       <defs>
        <path id="DejaVuSans-36" d="M 2113 2584 
Q 1688 2584 1439 2293 
Q 1191 2003 1191 1497 
Q 1191 994 1439 701 
Q 1688 409 2113 409 
Q 2538 409 2786 701 
Q 3034 994 3034 1497 
Q 3034 2003 2786 2293 
Q 2538 2584 2113 2584 
z
M 3366 4563 
L 3366 3988 
Q 3128 4100 2886 4159 
Q 2644 4219 2406 4219 
Q 1781 4219 1451 3797 
Q 1122 3375 1075 2522 
Q 1259 2794 1537 2939 
Q 1816 3084 2150 3084 
Q 2853 3084 3261 2657 
Q 3669 2231 3669 1497 
Q 3669 778 3244 343 
Q 2819 -91 2113 -91 
Q 1303 -91 875 529 
Q 447 1150 447 2328 
Q 447 3434 972 4092 
Q 1497 4750 2381 4750 
Q 2619 4750 2861 4703 
Q 3103 4656 3366 4563 
z
" transform="scale(0.015625)"/>
       </defs>
       <use xlink:href="#DejaVuSans-36"/>
       <use xlink:href="#DejaVuSans-30" x="63.623047"/>
      </g>
     </g>
    </g>
    <g id="xtick_5">
     <g id="line2d_9">
      <path d="M 391.978326 361.340812 
L 391.978326 28.700812 
" clip-path="url(#p66e69ef2ee)" style="fill: none; stroke: #b0b0b0; stroke-width: 0.8; stroke-linecap: square"/>
     </g>
     <g id="line2d_10">
      <g>
       <use xlink:href="#m4c39d4d05f" x="391.978326" y="361.340812" style="stroke: #000000; stroke-width: 0.8"/>
      </g>
     </g>
     <g id="text_5">
      <!-- 80 -->
      <g transform="translate(381.162076 381.258156) scale(0.17 -0.17)">
       <defs>
        <path id="DejaVuSans-38" d="M 2034 2216 
Q 1584 2216 1326 1975 
Q 1069 1734 1069 1313 
Q 1069 891 1326 650 
Q 1584 409 2034 409 
Q 2484 409 2743 651 
Q 3003 894 3003 1313 
Q 3003 1734 2745 1975 
Q 2488 2216 2034 2216 
z
M 1403 2484 
Q 997 2584 770 2862 
Q 544 3141 544 3541 
Q 544 4100 942 4425 
Q 1341 4750 2034 4750 
Q 2731 4750 3128 4425 
Q 3525 4100 3525 3541 
Q 3525 3141 3298 2862 
Q 3072 2584 2669 2484 
Q 3125 2378 3379 2068 
Q 3634 1759 3634 1313 
Q 3634 634 3220 271 
Q 2806 -91 2034 -91 
Q 1263 -91 848 271 
Q 434 634 434 1313 
Q 434 1759 690 2068 
Q 947 2378 1403 2484 
z
M 1172 3481 
Q 1172 3119 1398 2916 
Q 1625 2713 2034 2713 
Q 2441 2713 2670 2916 
Q 2900 3119 2900 3481 
Q 2900 3844 2670 4047 
Q 2441 4250 2034 4250 
Q 1625 4250 1398 4047 
Q 1172 3844 1172 3481 
z
" transform="scale(0.015625)"/>
       </defs>
       <use xlink:href="#DejaVuSans-38"/>
       <use xlink:href="#DejaVuSans-30" x="63.623047"/>
      </g>
     </g>
    </g>
    <g id="xtick_6">
     <g id="line2d_11">
      <path d="M 461.467741 361.340812 
L 461.467741 28.700812 
" clip-path="url(#p66e69ef2ee)" style="fill: none; stroke: #b0b0b0; stroke-width: 0.8; stroke-linecap: square"/>
     </g>
     <g id="line2d_12">
      <g>
       <use xlink:href="#m4c39d4d05f" x="461.467741" y="361.340812" style="stroke: #000000; stroke-width: 0.8"/>
      </g>
     </g>
     <g id="text_6">
      <!-- 100 -->
      <g transform="translate(445.243366 381.258156) scale(0.17 -0.17)">
       <defs>
        <path id="DejaVuSans-31" d="M 794 531 
L 1825 531 
L 1825 4091 
L 703 3866 
L 703 4441 
L 1819 4666 
L 2450 4666 
L 2450 531 
L 3481 531 
L 3481 0 
L 794 0 
L 794 531 
z
" transform="scale(0.015625)"/>
       </defs>
       <use xlink:href="#DejaVuSans-31"/>
       <use xlink:href="#DejaVuSans-30" x="63.623047"/>
       <use xlink:href="#DejaVuSans-30" x="127.246094"/>
      </g>
     </g>
    </g>
    <g id="xtick_7">
     <g id="line2d_13">
      <path d="M 530.957156 361.340812 
L 530.957156 28.700812 
" clip-path="url(#p66e69ef2ee)" style="fill: none; stroke: #b0b0b0; stroke-width: 0.8; stroke-linecap: square"/>
     </g>
     <g id="line2d_14">
      <g>
       <use xlink:href="#m4c39d4d05f" x="530.957156" y="361.340812" style="stroke: #000000; stroke-width: 0.8"/>
      </g>
     </g>
     <g id="text_7">
      <!-- 120 -->
      <g transform="translate(514.732781 381.258156) scale(0.17 -0.17)">
       <use xlink:href="#DejaVuSans-31"/>
       <use xlink:href="#DejaVuSans-32" x="63.623047"/>
       <use xlink:href="#DejaVuSans-30" x="127.246094"/>
      </g>
     </g>
    </g>
    <g id="xtick_8">
     <g id="line2d_15">
      <path d="M 600.44657 361.340812 
L 600.44657 28.700812 
" clip-path="url(#p66e69ef2ee)" style="fill: none; stroke: #b0b0b0; stroke-width: 0.8; stroke-linecap: square"/>
     </g>
     <g id="line2d_16">
      <g>
       <use xlink:href="#m4c39d4d05f" x="600.44657" y="361.340812" style="stroke: #000000; stroke-width: 0.8"/>
      </g>
     </g>
     <g id="text_8">
      <!-- 140 -->
      <g transform="translate(584.222195 381.258156) scale(0.17 -0.17)">
       <use xlink:href="#DejaVuSans-31"/>
       <use xlink:href="#DejaVuSans-34" x="63.623047"/>
       <use xlink:href="#DejaVuSans-30" x="127.246094"/>
      </g>
     </g>
    </g>
    <g id="text_9">
     <!-- Epoch -->
     <g transform="translate(341.628437 401.710969) scale(0.17 -0.17)">
      <defs>
       <path id="DejaVuSans-45" d="M 628 4666 
L 3578 4666 
L 3578 4134 
L 1259 4134 
L 1259 2753 
L 3481 2753 
L 3481 2222 
L 1259 2222 
L 1259 531 
L 3634 531 
L 3634 0 
L 628 0 
L 628 4666 
z
" transform="scale(0.015625)"/>
       <path id="DejaVuSans-70" d="M 1159 525 
L 1159 -1331 
L 581 -1331 
L 581 3500 
L 1159 3500 
L 1159 2969 
Q 1341 3281 1617 3432 
Q 1894 3584 2278 3584 
Q 2916 3584 3314 3078 
Q 3713 2572 3713 1747 
Q 3713 922 3314 415 
Q 2916 -91 2278 -91 
Q 1894 -91 1617 61 
Q 1341 213 1159 525 
z
M 3116 1747 
Q 3116 2381 2855 2742 
Q 2594 3103 2138 3103 
Q 1681 3103 1420 2742 
Q 1159 2381 1159 1747 
Q 1159 1113 1420 752 
Q 1681 391 2138 391 
Q 2594 391 2855 752 
Q 3116 1113 3116 1747 
z
" transform="scale(0.015625)"/>
       <path id="DejaVuSans-6f" d="M 1959 3097 
Q 1497 3097 1228 2736 
Q 959 2375 959 1747 
Q 959 1119 1226 758 
Q 1494 397 1959 397 
Q 2419 397 2687 759 
Q 2956 1122 2956 1747 
Q 2956 2369 2687 2733 
Q 2419 3097 1959 3097 
z
M 1959 3584 
Q 2709 3584 3137 3096 
Q 3566 2609 3566 1747 
Q 3566 888 3137 398 
Q 2709 -91 1959 -91 
Q 1206 -91 779 398 
Q 353 888 353 1747 
Q 353 2609 779 3096 
Q 1206 3584 1959 3584 
z
" transform="scale(0.015625)"/>
       <path id="DejaVuSans-63" d="M 3122 3366 
L 3122 2828 
Q 2878 2963 2633 3030 
Q 2388 3097 2138 3097 
Q 1578 3097 1268 2742 
Q 959 2388 959 1747 
Q 959 1106 1268 751 
Q 1578 397 2138 397 
Q 2388 397 2633 464 
Q 2878 531 3122 666 
L 3122 134 
Q 2881 22 2623 -34 
Q 2366 -91 2075 -91 
Q 1284 -91 818 406 
Q 353 903 353 1747 
Q 353 2603 823 3093 
Q 1294 3584 2113 3584 
Q 2378 3584 2631 3529 
Q 2884 3475 3122 3366 
z
" transform="scale(0.015625)"/>
       <path id="DejaVuSans-68" d="M 3513 2113 
L 3513 0 
L 2938 0 
L 2938 2094 
Q 2938 2591 2744 2837 
Q 2550 3084 2163 3084 
Q 1697 3084 1428 2787 
Q 1159 2491 1159 1978 
L 1159 0 
L 581 0 
L 581 4863 
L 1159 4863 
L 1159 2956 
Q 1366 3272 1645 3428 
Q 1925 3584 2291 3584 
Q 2894 3584 3203 3211 
Q 3513 2838 3513 2113 
z
" transform="scale(0.015625)"/>
      </defs>
      <use xlink:href="#DejaVuSans-45"/>
      <use xlink:href="#DejaVuSans-70" x="63.183594"/>
      <use xlink:href="#DejaVuSans-6f" x="126.660156"/>
      <use xlink:href="#DejaVuSans-63" x="187.841797"/>
      <use xlink:href="#DejaVuSans-68" x="242.822266"/>
     </g>
    </g>
   </g>
   <g id="matplotlib.axis_2">
    <g id="ytick_1">
     <g id="line2d_17">
      <path d="M 88.657031 313.054684 
L 646.657031 313.054684 
" clip-path="url(#p66e69ef2ee)" style="fill: none; stroke: #b0b0b0; stroke-width: 0.8; stroke-linecap: square"/>
     </g>
     <g id="line2d_18">
      <defs>
       <path id="mbc016ddbf9" d="M 0 0 
L -3.5 0 
" style="stroke: #000000; stroke-width: 0.8"/>
      </defs>
      <g>
       <use xlink:href="#mbc016ddbf9" x="88.657031" y="313.054684" style="stroke: #000000; stroke-width: 0.8"/>
      </g>
     </g>
     <g id="text_10">
      <!-- −0.10 -->
      <g transform="translate(29.56 319.513356) scale(0.17 -0.17)">
       <defs>
        <path id="DejaVuSans-2212" d="M 678 2272 
L 4684 2272 
L 4684 1741 
L 678 1741 
L 678 2272 
z
" transform="scale(0.015625)"/>
        <path id="DejaVuSans-2e" d="M 684 794 
L 1344 794 
L 1344 0 
L 684 0 
L 684 794 
z
" transform="scale(0.015625)"/>
       </defs>
       <use xlink:href="#DejaVuSans-2212"/>
       <use xlink:href="#DejaVuSans-30" x="83.789062"/>
       <use xlink:href="#DejaVuSans-2e" x="147.412109"/>
       <use xlink:href="#DejaVuSans-31" x="179.199219"/>
       <use xlink:href="#DejaVuSans-30" x="242.822266"/>
      </g>
     </g>
    </g>
    <g id="ytick_2">
     <g id="line2d_19">
      <path d="M 88.657031 263.042569 
L 646.657031 263.042569 
" clip-path="url(#p66e69ef2ee)" style="fill: none; stroke: #b0b0b0; stroke-width: 0.8; stroke-linecap: square"/>
     </g>
     <g id="line2d_20">
      <g>
       <use xlink:href="#mbc016ddbf9" x="88.657031" y="263.042569" style="stroke: #000000; stroke-width: 0.8"/>
      </g>
     </g>
     <g id="text_11">
      <!-- −0.05 -->
      <g transform="translate(29.56 269.501241) scale(0.17 -0.17)">
       <defs>
        <path id="DejaVuSans-35" d="M 691 4666 
L 3169 4666 
L 3169 4134 
L 1269 4134 
L 1269 2991 
Q 1406 3038 1543 3061 
Q 1681 3084 1819 3084 
Q 2600 3084 3056 2656 
Q 3513 2228 3513 1497 
Q 3513 744 3044 326 
Q 2575 -91 1722 -91 
Q 1428 -91 1123 -41 
Q 819 9 494 109 
L 494 744 
Q 775 591 1075 516 
Q 1375 441 1709 441 
Q 2250 441 2565 725 
Q 2881 1009 2881 1497 
Q 2881 1984 2565 2268 
Q 2250 2553 1709 2553 
Q 1456 2553 1204 2497 
Q 953 2441 691 2322 
L 691 4666 
z
" transform="scale(0.015625)"/>
       </defs>
       <use xlink:href="#DejaVuSans-2212"/>
       <use xlink:href="#DejaVuSans-30" x="83.789062"/>
       <use xlink:href="#DejaVuSans-2e" x="147.412109"/>
       <use xlink:href="#DejaVuSans-30" x="179.199219"/>
       <use xlink:href="#DejaVuSans-35" x="242.822266"/>
      </g>
     </g>
    </g>
    <g id="ytick_3">
     <g id="line2d_21">
      <path d="M 88.657031 213.030454 
L 646.657031 213.030454 
" clip-path="url(#p66e69ef2ee)" style="fill: none; stroke: #b0b0b0; stroke-width: 0.8; stroke-linecap: square"/>
     </g>
     <g id="line2d_22">
      <g>
       <use xlink:href="#mbc016ddbf9" x="88.657031" y="213.030454" style="stroke: #000000; stroke-width: 0.8"/>
      </g>
     </g>
     <g id="text_12">
      <!-- 0.00 -->
      <g transform="translate(43.805469 219.489125) scale(0.17 -0.17)">
       <use xlink:href="#DejaVuSans-30"/>
       <use xlink:href="#DejaVuSans-2e" x="63.623047"/>
       <use xlink:href="#DejaVuSans-30" x="95.410156"/>
       <use xlink:href="#DejaVuSans-30" x="159.033203"/>
      </g>
     </g>
    </g>
    <g id="ytick_4">
     <g id="line2d_23">
      <path d="M 88.657031 163.018338 
L 646.657031 163.018338 
" clip-path="url(#p66e69ef2ee)" style="fill: none; stroke: #b0b0b0; stroke-width: 0.8; stroke-linecap: square"/>
     </g>
     <g id="line2d_24">
      <g>
       <use xlink:href="#mbc016ddbf9" x="88.657031" y="163.018338" style="stroke: #000000; stroke-width: 0.8"/>
      </g>
     </g>
     <g id="text_13">
      <!-- 0.05 -->
      <g transform="translate(43.805469 169.47701) scale(0.17 -0.17)">
       <use xlink:href="#DejaVuSans-30"/>
       <use xlink:href="#DejaVuSans-2e" x="63.623047"/>
       <use xlink:href="#DejaVuSans-30" x="95.410156"/>
       <use xlink:href="#DejaVuSans-35" x="159.033203"/>
      </g>
     </g>
    </g>
    <g id="ytick_5">
     <g id="line2d_25">
      <path d="M 88.657031 113.006223 
L 646.657031 113.006223 
" clip-path="url(#p66e69ef2ee)" style="fill: none; stroke: #b0b0b0; stroke-width: 0.8; stroke-linecap: square"/>
     </g>
     <g id="line2d_26">
      <g>
       <use xlink:href="#mbc016ddbf9" x="88.657031" y="113.006223" style="stroke: #000000; stroke-width: 0.8"/>
      </g>
     </g>
     <g id="text_14">
      <!-- 0.10 -->
      <g transform="translate(43.805469 119.464895) scale(0.17 -0.17)">
       <use xlink:href="#DejaVuSans-30"/>
       <use xlink:href="#DejaVuSans-2e" x="63.623047"/>
       <use xlink:href="#DejaVuSans-31" x="95.410156"/>
       <use xlink:href="#DejaVuSans-30" x="159.033203"/>
      </g>
     </g>
    </g>
    <g id="ytick_6">
     <g id="line2d_27">
      <path d="M 88.657031 62.994108 
L 646.657031 62.994108 
" clip-path="url(#p66e69ef2ee)" style="fill: none; stroke: #b0b0b0; stroke-width: 0.8; stroke-linecap: square"/>
     </g>
     <g id="line2d_28">
      <g>
       <use xlink:href="#mbc016ddbf9" x="88.657031" y="62.994108" style="stroke: #000000; stroke-width: 0.8"/>
      </g>
     </g>
     <g id="text_15">
      <!-- 0.15 -->
      <g transform="translate(43.805469 69.45278) scale(0.17 -0.17)">
       <use xlink:href="#DejaVuSans-30"/>
       <use xlink:href="#DejaVuSans-2e" x="63.623047"/>
       <use xlink:href="#DejaVuSans-31" x="95.410156"/>
       <use xlink:href="#DejaVuSans-35" x="159.033203"/>
      </g>
     </g>
    </g>
    <g id="text_16">
     <!-- Angle $\theta_{i,j}$ (rad) -->
     <g transform="translate(20.29 257.155812) rotate(-90) scale(0.17 -0.17)">
      <defs>
       <path id="DejaVuSans-41" d="M 2188 4044 
L 1331 1722 
L 3047 1722 
L 2188 4044 
z
M 1831 4666 
L 2547 4666 
L 4325 0 
L 3669 0 
L 3244 1197 
L 1141 1197 
L 716 0 
L 50 0 
L 1831 4666 
z
" transform="scale(0.015625)"/>
       <path id="DejaVuSans-6e" d="M 3513 2113 
L 3513 0 
L 2938 0 
L 2938 2094 
Q 2938 2591 2744 2837 
Q 2550 3084 2163 3084 
Q 1697 3084 1428 2787 
Q 1159 2491 1159 1978 
L 1159 0 
L 581 0 
L 581 3500 
L 1159 3500 
L 1159 2956 
Q 1366 3272 1645 3428 
Q 1925 3584 2291 3584 
Q 2894 3584 3203 3211 
Q 3513 2838 3513 2113 
z
" transform="scale(0.015625)"/>
       <path id="DejaVuSans-67" d="M 2906 1791 
Q 2906 2416 2648 2759 
Q 2391 3103 1925 3103 
Q 1463 3103 1205 2759 
Q 947 2416 947 1791 
Q 947 1169 1205 825 
Q 1463 481 1925 481 
Q 2391 481 2648 825 
Q 2906 1169 2906 1791 
z
M 3481 434 
Q 3481 -459 3084 -895 
Q 2688 -1331 1869 -1331 
Q 1566 -1331 1297 -1286 
Q 1028 -1241 775 -1147 
L 775 -588 
Q 1028 -725 1275 -790 
Q 1522 -856 1778 -856 
Q 2344 -856 2625 -561 
Q 2906 -266 2906 331 
L 2906 616 
Q 2728 306 2450 153 
Q 2172 0 1784 0 
Q 1141 0 747 490 
Q 353 981 353 1791 
Q 353 2603 747 3093 
Q 1141 3584 1784 3584 
Q 2172 3584 2450 3431 
Q 2728 3278 2906 2969 
L 2906 3500 
L 3481 3500 
L 3481 434 
z
" transform="scale(0.015625)"/>
       <path id="DejaVuSans-6c" d="M 603 4863 
L 1178 4863 
L 1178 0 
L 603 0 
L 603 4863 
z
" transform="scale(0.015625)"/>
       <path id="DejaVuSans-65" d="M 3597 1894 
L 3597 1613 
L 953 1613 
Q 991 1019 1311 708 
Q 1631 397 2203 397 
Q 2534 397 2845 478 
Q 3156 559 3463 722 
L 3463 178 
Q 3153 47 2828 -22 
Q 2503 -91 2169 -91 
Q 1331 -91 842 396 
Q 353 884 353 1716 
Q 353 2575 817 3079 
Q 1281 3584 2069 3584 
Q 2775 3584 3186 3129 
Q 3597 2675 3597 1894 
z
M 3022 2063 
Q 3016 2534 2758 2815 
Q 2500 3097 2075 3097 
Q 1594 3097 1305 2825 
Q 1016 2553 972 2059 
L 3022 2063 
z
" transform="scale(0.015625)"/>
       <path id="DejaVuSans-20" transform="scale(0.015625)"/>
       <path id="DejaVuSans-Oblique-3b8" d="M 2913 2219 
L 925 2219 
Q 791 1284 928 888 
Q 1100 400 1566 400 
Q 2034 400 2391 891 
Q 2703 1322 2913 2219 
z
M 3009 2750 
Q 3094 3638 2984 3950 
Q 2813 4444 2353 4444 
Q 1875 4444 1525 3956 
Q 1250 3563 1034 2750 
L 3009 2750 
z
M 2444 4913 
Q 3194 4913 3494 4250 
Q 3794 3591 3566 2422 
Q 3341 1256 2781 594 
Q 2225 -72 1475 -72 
Q 722 -72 425 594 
Q 128 1256 353 2422 
Q 581 3591 1134 4250 
Q 1691 4913 2444 4913 
z
" transform="scale(0.015625)"/>
       <path id="DejaVuSans-Oblique-69" d="M 1172 4863 
L 1747 4863 
L 1606 4134 
L 1031 4134 
L 1172 4863 
z
M 909 3500 
L 1484 3500 
L 800 0 
L 225 0 
L 909 3500 
z
" transform="scale(0.015625)"/>
       <path id="DejaVuSans-2c" d="M 750 794 
L 1409 794 
L 1409 256 
L 897 -744 
L 494 -744 
L 750 256 
L 750 794 
z
" transform="scale(0.015625)"/>
       <path id="DejaVuSans-Oblique-6a" d="M 928 3500 
L 1503 3500 
L 813 -63 
L 809 -78 
Q 694 -675 544 -897 
Q 403 -1106 132 -1218 
Q -138 -1331 -506 -1331 
L -722 -1331 
L -628 -844 
L -481 -844 
Q -144 -844 -1 -703 
Q 141 -563 238 -63 
L 928 3500 
z
M 1197 4863 
L 1772 4863 
L 1631 4134 
L 1056 4134 
L 1197 4863 
z
" transform="scale(0.015625)"/>
       <path id="DejaVuSans-28" d="M 1984 4856 
Q 1566 4138 1362 3434 
Q 1159 2731 1159 2009 
Q 1159 1288 1364 580 
Q 1569 -128 1984 -844 
L 1484 -844 
Q 1016 -109 783 600 
Q 550 1309 550 2009 
Q 550 2706 781 3412 
Q 1013 4119 1484 4856 
L 1984 4856 
z
" transform="scale(0.015625)"/>
       <path id="DejaVuSans-72" d="M 2631 2963 
Q 2534 3019 2420 3045 
Q 2306 3072 2169 3072 
Q 1681 3072 1420 2755 
Q 1159 2438 1159 1844 
L 1159 0 
L 581 0 
L 581 3500 
L 1159 3500 
L 1159 2956 
Q 1341 3275 1631 3429 
Q 1922 3584 2338 3584 
Q 2397 3584 2469 3576 
Q 2541 3569 2628 3553 
L 2631 2963 
z
" transform="scale(0.015625)"/>
       <path id="DejaVuSans-61" d="M 2194 1759 
Q 1497 1759 1228 1600 
Q 959 1441 959 1056 
Q 959 750 1161 570 
Q 1363 391 1709 391 
Q 2188 391 2477 730 
Q 2766 1069 2766 1631 
L 2766 1759 
L 2194 1759 
z
M 3341 1997 
L 3341 0 
L 2766 0 
L 2766 531 
Q 2569 213 2275 61 
Q 1981 -91 1556 -91 
Q 1019 -91 701 211 
Q 384 513 384 1019 
Q 384 1609 779 1909 
Q 1175 2209 1959 2209 
L 2766 2209 
L 2766 2266 
Q 2766 2663 2505 2880 
Q 2244 3097 1772 3097 
Q 1472 3097 1187 3025 
Q 903 2953 641 2809 
L 641 3341 
Q 956 3463 1253 3523 
Q 1550 3584 1831 3584 
Q 2591 3584 2966 3190 
Q 3341 2797 3341 1997 
z
" transform="scale(0.015625)"/>
       <path id="DejaVuSans-64" d="M 2906 2969 
L 2906 4863 
L 3481 4863 
L 3481 0 
L 2906 0 
L 2906 525 
Q 2725 213 2448 61 
Q 2172 -91 1784 -91 
Q 1150 -91 751 415 
Q 353 922 353 1747 
Q 353 2572 751 3078 
Q 1150 3584 1784 3584 
Q 2172 3584 2448 3432 
Q 2725 3281 2906 2969 
z
M 947 1747 
Q 947 1113 1208 752 
Q 1469 391 1925 391 
Q 2381 391 2643 752 
Q 2906 1113 2906 1747 
Q 2906 2381 2643 2742 
Q 2381 3103 1925 3103 
Q 1469 3103 1208 2742 
Q 947 2381 947 1747 
z
" transform="scale(0.015625)"/>
       <path id="DejaVuSans-29" d="M 513 4856 
L 1013 4856 
Q 1481 4119 1714 3412 
Q 1947 2706 1947 2009 
Q 1947 1309 1714 600 
Q 1481 -109 1013 -844 
L 513 -844 
Q 928 -128 1133 580 
Q 1338 1288 1338 2009 
Q 1338 2731 1133 3434 
Q 928 4138 513 4856 
z
" transform="scale(0.015625)"/>
      </defs>
      <use xlink:href="#DejaVuSans-41" transform="translate(0 0.234375)"/>
      <use xlink:href="#DejaVuSans-6e" transform="translate(68.408203 0.234375)"/>
      <use xlink:href="#DejaVuSans-67" transform="translate(131.787109 0.234375)"/>
      <use xlink:href="#DejaVuSans-6c" transform="translate(195.263672 0.234375)"/>
      <use xlink:href="#DejaVuSans-65" transform="translate(223.046875 0.234375)"/>
      <use xlink:href="#DejaVuSans-20" transform="translate(284.570312 0.234375)"/>
      <use xlink:href="#DejaVuSans-Oblique-3b8" transform="translate(316.357422 0.234375)"/>
      <use xlink:href="#DejaVuSans-Oblique-69" transform="translate(377.539062 -16.171875) scale(0.7)"/>
      <use xlink:href="#DejaVuSans-2c" transform="translate(396.987305 -16.171875) scale(0.7)"/>
      <use xlink:href="#DejaVuSans-Oblique-6a" transform="translate(432.875977 -16.171875) scale(0.7)"/>
      <use xlink:href="#DejaVuSans-20" transform="translate(455.058594 0.234375)"/>
      <use xlink:href="#DejaVuSans-28" transform="translate(486.845703 0.234375)"/>
      <use xlink:href="#DejaVuSans-72" transform="translate(525.859375 0.234375)"/>
      <use xlink:href="#DejaVuSans-61" transform="translate(566.972656 0.234375)"/>
      <use xlink:href="#DejaVuSans-64" transform="translate(628.251953 0.234375)"/>
      <use xlink:href="#DejaVuSans-29" transform="translate(691.728516 0.234375)"/>
     </g>
    </g>
   </g>
   <g id="line2d_29">
    <path d="M 114.020668 218.320989 
L 117.495138 223.200392 
L 120.969609 227.706835 
L 124.44408 231.873673 
L 127.918551 235.730237 
L 131.393021 239.302483 
L 134.867492 242.613527 
L 138.341963 245.684075 
L 141.816433 248.532783 
L 145.290904 251.176535 
L 148.765375 253.630688 
L 152.239846 255.909263 
L 155.714316 258.025102 
L 159.188787 259.990007 
L 162.663258 261.814846 
L 169.612199 265.083696 
L 176.561141 267.903231 
L 183.510082 270.33492 
L 190.459024 272.431734 
L 197.407965 274.239406 
L 204.356907 275.797462 
L 211.305848 277.140083 
L 218.25479 278.296825 
L 228.678202 279.738349 
L 239.101614 280.890424 
L 249.525026 281.810923 
L 263.422909 282.756863 
L 277.320792 283.457865 
L 294.693146 284.08461 
L 315.53997 284.583981 
L 339.861265 284.943173 
L 374.605973 285.218166 
L 426.723034 285.385161 
L 534.431627 285.458405 
L 621.293395 285.465293 
L 621.293395 285.465293 
" clip-path="url(#p66e69ef2ee)" style="fill: none; stroke: #e41a1c; stroke-width: 1.5; stroke-linecap: square"/>
   </g>
   <g id="line2d_30">
    <path d="M 114.020668 201.611851 
L 117.495138 190.855118 
L 120.969609 180.744015 
L 124.44408 171.25755 
L 127.918551 162.371401 
L 131.393021 154.059041 
L 134.867492 146.292634 
L 138.341963 139.043731 
L 141.816433 132.283809 
L 145.290904 125.984677 
L 148.765375 120.118784 
L 152.239846 114.659436 
L 155.714316 109.580954 
L 159.188787 104.858776 
L 162.663258 100.469519 
L 166.137729 96.391008 
L 169.612199 92.602286 
L 173.08667 89.083597 
L 176.561141 85.816366 
L 180.035612 82.783156 
L 183.510082 79.967632 
L 186.984553 77.354512 
L 190.459024 74.929513 
L 193.933495 72.679307 
L 197.407965 70.591462 
L 200.882436 68.654393 
L 204.356907 66.857314 
L 211.305848 63.643672 
L 218.25479 60.878372 
L 225.203731 58.499077 
L 232.152673 56.452004 
L 239.101614 54.690798 
L 246.050556 53.175532 
L 252.999497 51.871835 
L 259.948438 50.750127 
L 270.371851 49.354119 
L 280.795263 48.239773 
L 291.218675 47.350147 
L 305.116558 46.436416 
L 319.014441 45.759427 
L 336.386795 45.154075 
L 357.233619 44.671533 
L 385.029385 44.287821 
L 423.248563 44.02485 
L 482.314565 43.876217 
L 617.818924 43.821043 
L 621.293395 43.820812 
L 621.293395 43.820812 
" clip-path="url(#p66e69ef2ee)" style="fill: none; stroke: #377eb8; stroke-width: 1.5; stroke-linecap: square"/>
   </g>
   <g id="line2d_31">
    <path d="M 114.020668 207.526399 
L 117.495138 202.32891 
L 120.969609 197.439301 
L 124.44408 192.853342 
L 127.918551 188.562844 
L 131.393021 184.556886 
L 134.867492 180.822757 
L 138.341963 177.346673 
L 141.816433 174.11431 
L 145.290904 171.111208 
L 148.765375 168.323059 
L 152.239846 165.735912 
L 155.714316 163.336321 
L 159.188787 161.111432 
L 162.663258 159.049046 
L 166.137729 157.137645 
L 169.612199 155.366398 
L 176.561141 152.204454 
L 183.510082 149.489903 
L 190.459024 147.159235 
L 197.407965 145.15773 
L 204.356907 143.438398 
L 211.305848 141.960972 
L 218.25479 140.690985 
L 225.203731 139.598945 
L 235.627143 138.240352 
L 246.050556 137.155851 
L 256.473968 136.289671 
L 270.371851 135.399227 
L 284.269734 134.738604 
L 301.642087 134.146895 
L 322.488912 133.674286 
L 350.284678 133.297708 
L 388.503856 133.039285 
L 447.569858 132.89346 
L 586.548688 132.839796 
L 621.293395 132.838342 
L 621.293395 132.838342 
" clip-path="url(#p66e69ef2ee)" style="fill: none; stroke: #4daf4a; stroke-width: 1.5; stroke-linecap: square"/>
   </g>
   <g id="line2d_32">
    <path d="M 114.020668 225.128587 
L 117.495138 235.969828 
L 120.969609 245.704829 
L 124.44408 254.463991 
L 127.918551 262.360346 
L 131.393021 269.49204 
L 134.867492 275.944467 
L 138.341963 281.792091 
L 141.816433 287.099992 
L 145.290904 291.925187 
L 148.765375 296.317752 
L 152.239846 300.321771 
L 155.714316 303.97615 
L 159.188787 307.315307 
L 162.663258 310.369762 
L 166.137729 313.166643 
L 169.612199 315.730111 
L 173.08667 318.08174 
L 176.561141 320.24083 
L 180.035612 322.224681 
L 183.510082 324.048835 
L 186.984553 325.727278 
L 190.459024 327.272616 
L 197.407965 330.008446 
L 204.356907 332.335079 
L 211.305848 334.317334 
L 218.25479 336.008857 
L 225.203731 337.454268 
L 232.152673 338.69084 
L 239.101614 339.749835 
L 249.525026 341.061778 
L 259.948438 342.104625 
L 270.371851 342.934699 
L 284.269734 343.785371 
L 298.167617 344.414745 
L 315.53997 344.977244 
L 336.386795 345.425804 
L 364.182561 345.783002 
L 402.401739 346.028439 
L 464.942212 346.171612 
L 614.344453 346.220524 
L 621.293395 346.220812 
L 621.293395 346.220812 
" clip-path="url(#p66e69ef2ee)" style="fill: none; stroke: #984ea3; stroke-width: 1.5; stroke-linecap: square"/>
   </g>
   <g id="line2d_33">
    <path d="M 114.020668 207.31561 
L 117.495138 201.912646 
L 120.969609 196.817842 
L 124.44408 192.024102 
L 127.918551 187.521887 
L 131.393021 183.299951 
L 134.867492 179.34593 
L 138.341963 175.646802 
L 141.816433 172.189238 
L 145.290904 168.959878 
L 148.765375 165.945529 
L 152.239846 163.133317 
L 155.714316 160.510794 
L 159.188787 158.066005 
L 162.663258 155.787542 
L 166.137729 153.664566 
L 169.612199 151.686816 
L 173.08667 149.844614 
L 180.035612 146.530975 
L 186.984553 143.657319 
L 193.933495 141.165512 
L 200.882436 139.00483 
L 207.831377 137.131148 
L 214.780319 135.506162 
L 221.72926 134.096664 
L 228.678202 132.873886 
L 239.101614 131.336257 
L 249.525026 130.093058 
L 259.948438 129.087558 
L 270.371851 128.274042 
L 284.269734 127.425358 
L 298.167617 126.784991 
L 315.53997 126.20054 
L 336.386795 125.722754 
L 364.182561 125.330481 
L 402.401739 125.049777 
L 461.467741 124.880964 
L 583.074217 124.812941 
L 621.293395 124.809423 
L 621.293395 124.809423 
" clip-path="url(#p66e69ef2ee)" style="fill: none; stroke: #ff7f00; stroke-width: 1.5; stroke-linecap: square"/>
   </g>
   <g id="line2d_34">
    <path d="M 114.020668 208.898656 
L 117.495138 205.13985 
L 120.969609 201.727254 
L 124.44408 198.634108 
L 127.918551 195.834293 
L 131.393021 193.30276 
L 134.867492 191.015795 
L 138.341963 188.951179 
L 141.816433 187.088265 
L 145.290904 185.407989 
L 148.765375 183.892843 
L 152.239846 182.526817 
L 155.714316 181.295321 
L 162.663258 179.184151 
L 169.612199 177.46763 
L 176.561141 176.070929 
L 183.510082 174.933286 
L 190.459024 174.005519 
L 200.882436 172.922597 
L 211.305848 172.120925 
L 221.72926 171.525533 
L 235.627143 170.960628 
L 252.999497 170.502184 
L 273.846321 170.175427 
L 305.116558 169.929774 
L 357.233619 169.789958 
L 485.789036 169.748705 
L 621.293395 169.748702 
L 621.293395 169.748702 
" clip-path="url(#p66e69ef2ee)" style="fill: none; stroke: #ffff33; stroke-width: 1.5; stroke-linecap: square"/>
   </g>
   <g id="line2d_35">
    <path d="M 114.020668 222.170753 
L 117.495138 230.411641 
L 120.969609 237.855954 
L 124.44408 244.592934 
L 127.918551 250.700224 
L 131.393021 256.245556 
L 134.867492 261.288182 
L 138.341963 265.880074 
L 141.816433 270.066951 
L 145.290904 273.889136 
L 148.765375 277.382295 
L 152.239846 280.578055 
L 155.714316 283.504531 
L 159.188787 286.186782 
L 162.663258 288.647196 
L 166.137729 290.905819 
L 169.612199 292.980638 
L 173.08667 294.88783 
L 176.561141 296.641969 
L 180.035612 298.256213 
L 186.984553 301.111486 
L 193.933495 303.536098 
L 200.882436 305.598093 
L 207.831377 307.353928 
L 214.780319 308.850667 
L 221.72926 310.127705 
L 228.678202 311.218133 
L 239.101614 312.563663 
L 249.525026 313.62762 
L 259.948438 314.469733 
L 273.846321 315.32679 
L 287.744204 315.955551 
L 305.116558 316.51201 
L 325.963382 316.950277 
L 353.759148 317.293751 
L 391.978326 317.524729 
L 457.99327 317.658644 
L 621.293395 317.698427 
L 621.293395 317.698427 
" clip-path="url(#p66e69ef2ee)" style="fill: none; stroke: #a65628; stroke-width: 1.5; stroke-linecap: square"/>
   </g>
   <g id="line2d_36">
    <path d="M 114.020668 207.199391 
L 117.495138 201.837531 
L 120.969609 196.913461 
L 124.44408 192.396072 
L 127.918551 188.255088 
L 131.393021 184.461434 
L 134.867492 180.987484 
L 138.341963 177.80721 
L 141.816433 174.896259 
L 145.290904 172.23197 
L 148.765375 169.793356 
L 152.239846 167.561049 
L 155.714316 165.517232 
L 159.188787 163.645552 
L 162.663258 161.931035 
L 166.137729 160.359987 
L 173.08667 157.599374 
L 180.035612 155.276307 
L 186.984553 153.318215 
L 193.933495 151.664924 
L 200.882436 150.266561 
L 207.831377 149.081769 
L 214.780319 148.076222 
L 225.203731 146.842916 
L 235.627143 145.87285 
L 246.050556 145.107316 
L 259.948438 144.328589 
L 277.320792 143.637573 
L 298.167617 143.088257 
L 322.488912 142.691101 
L 357.233619 142.382116 
L 409.35068 142.187653 
L 506.635861 142.098375 
L 621.293395 142.084973 
L 621.293395 142.084973 
" clip-path="url(#p66e69ef2ee)" style="fill: none; stroke: #f781bf; stroke-width: 1.5; stroke-linecap: square"/>
   </g>
   <g id="line2d_37">
    <path d="M 114.020668 219.275408 
L 117.495138 224.964658 
L 120.969609 230.15956 
L 124.44408 234.913344 
L 127.918551 239.272272 
L 131.393021 243.276641 
L 134.867492 246.961651 
L 138.341963 250.358147 
L 141.816433 253.493247 
L 145.290904 256.390876 
L 148.765375 259.072218 
L 152.239846 261.556096 
L 155.714316 263.859291 
L 159.188787 265.996822 
L 162.663258 267.982168 
L 166.137729 269.82747 
L 173.08667 273.140778 
L 180.035612 276.012816 
L 186.984553 278.506647 
L 193.933495 280.675036 
L 200.882436 282.562487 
L 207.831377 284.206785 
L 214.780319 285.640193 
L 221.72926 286.890388 
L 232.152673 288.473389 
L 242.576085 289.764285 
L 252.999497 290.817354 
L 263.422909 291.676574 
L 277.320792 292.581433 
L 291.218675 293.271353 
L 308.591029 293.907957 
L 329.437853 294.434888 
L 353.759148 294.831009 
L 388.503856 295.151325 
L 437.146446 295.352795 
L 524.008214 295.455763 
L 621.293395 295.475189 
L 621.293395 295.475189 
" clip-path="url(#p66e69ef2ee)" style="fill: none; stroke: #999999; stroke-width: 1.5; stroke-linecap: square"/>
   </g>
   <g id="patch_3">
    <path d="M 88.657031 361.340812 
L 88.657031 28.700812 
" style="fill: none; stroke: #000000; stroke-width: 0.8; stroke-linejoin: miter; stroke-linecap: square"/>
   </g>
   <g id="patch_4">
    <path d="M 646.657031 361.340812 
L 646.657031 28.700812 
" style="fill: none; stroke: #000000; stroke-width: 0.8; stroke-linejoin: miter; stroke-linecap: square"/>
   </g>
   <g id="patch_5">
    <path d="M 88.657031 361.340812 
L 646.657031 361.340812 
" style="fill: none; stroke: #000000; stroke-width: 0.8; stroke-linejoin: miter; stroke-linecap: square"/>
   </g>
   <g id="patch_6">
    <path d="M 88.657031 28.700812 
L 646.657031 28.700812 
" style="fill: none; stroke: #000000; stroke-width: 0.8; stroke-linejoin: miter; stroke-linecap: square"/>
   </g>
   <g id="text_17">
    <!-- Parameters evolution during training -->
    <g transform="translate(179.74275 22.700812) scale(0.204 -0.204)">
     <defs>
      <path id="DejaVuSans-50" d="M 1259 4147 
L 1259 2394 
L 2053 2394 
Q 2494 2394 2734 2622 
Q 2975 2850 2975 3272 
Q 2975 3691 2734 3919 
Q 2494 4147 2053 4147 
L 1259 4147 
z
M 628 4666 
L 2053 4666 
Q 2838 4666 3239 4311 
Q 3641 3956 3641 3272 
Q 3641 2581 3239 2228 
Q 2838 1875 2053 1875 
L 1259 1875 
L 1259 0 
L 628 0 
L 628 4666 
z
" transform="scale(0.015625)"/>
      <path id="DejaVuSans-6d" d="M 3328 2828 
Q 3544 3216 3844 3400 
Q 4144 3584 4550 3584 
Q 5097 3584 5394 3201 
Q 5691 2819 5691 2113 
L 5691 0 
L 5113 0 
L 5113 2094 
Q 5113 2597 4934 2840 
Q 4756 3084 4391 3084 
Q 3944 3084 3684 2787 
Q 3425 2491 3425 1978 
L 3425 0 
L 2847 0 
L 2847 2094 
Q 2847 2600 2669 2842 
Q 2491 3084 2119 3084 
Q 1678 3084 1418 2786 
Q 1159 2488 1159 1978 
L 1159 0 
L 581 0 
L 581 3500 
L 1159 3500 
L 1159 2956 
Q 1356 3278 1631 3431 
Q 1906 3584 2284 3584 
Q 2666 3584 2933 3390 
Q 3200 3197 3328 2828 
z
" transform="scale(0.015625)"/>
      <path id="DejaVuSans-74" d="M 1172 4494 
L 1172 3500 
L 2356 3500 
L 2356 3053 
L 1172 3053 
L 1172 1153 
Q 1172 725 1289 603 
Q 1406 481 1766 481 
L 2356 481 
L 2356 0 
L 1766 0 
Q 1100 0 847 248 
Q 594 497 594 1153 
L 594 3053 
L 172 3053 
L 172 3500 
L 594 3500 
L 594 4494 
L 1172 4494 
z
" transform="scale(0.015625)"/>
      <path id="DejaVuSans-73" d="M 2834 3397 
L 2834 2853 
Q 2591 2978 2328 3040 
Q 2066 3103 1784 3103 
Q 1356 3103 1142 2972 
Q 928 2841 928 2578 
Q 928 2378 1081 2264 
Q 1234 2150 1697 2047 
L 1894 2003 
Q 2506 1872 2764 1633 
Q 3022 1394 3022 966 
Q 3022 478 2636 193 
Q 2250 -91 1575 -91 
Q 1294 -91 989 -36 
Q 684 19 347 128 
L 347 722 
Q 666 556 975 473 
Q 1284 391 1588 391 
Q 1994 391 2212 530 
Q 2431 669 2431 922 
Q 2431 1156 2273 1281 
Q 2116 1406 1581 1522 
L 1381 1569 
Q 847 1681 609 1914 
Q 372 2147 372 2553 
Q 372 3047 722 3315 
Q 1072 3584 1716 3584 
Q 2034 3584 2315 3537 
Q 2597 3491 2834 3397 
z
" transform="scale(0.015625)"/>
      <path id="DejaVuSans-76" d="M 191 3500 
L 800 3500 
L 1894 563 
L 2988 3500 
L 3597 3500 
L 2284 0 
L 1503 0 
L 191 3500 
z
" transform="scale(0.015625)"/>
      <path id="DejaVuSans-75" d="M 544 1381 
L 544 3500 
L 1119 3500 
L 1119 1403 
Q 1119 906 1312 657 
Q 1506 409 1894 409 
Q 2359 409 2629 706 
Q 2900 1003 2900 1516 
L 2900 3500 
L 3475 3500 
L 3475 0 
L 2900 0 
L 2900 538 
Q 2691 219 2414 64 
Q 2138 -91 1772 -91 
Q 1169 -91 856 284 
Q 544 659 544 1381 
z
M 1991 3584 
L 1991 3584 
z
" transform="scale(0.015625)"/>
      <path id="DejaVuSans-69" d="M 603 3500 
L 1178 3500 
L 1178 0 
L 603 0 
L 603 3500 
z
M 603 4863 
L 1178 4863 
L 1178 4134 
L 603 4134 
L 603 4863 
z
" transform="scale(0.015625)"/>
     </defs>
     <use xlink:href="#DejaVuSans-50"/>
     <use xlink:href="#DejaVuSans-61" x="55.802734"/>
     <use xlink:href="#DejaVuSans-72" x="117.082031"/>
     <use xlink:href="#DejaVuSans-61" x="158.195312"/>
     <use xlink:href="#DejaVuSans-6d" x="219.474609"/>
     <use xlink:href="#DejaVuSans-65" x="316.886719"/>
     <use xlink:href="#DejaVuSans-74" x="378.410156"/>
     <use xlink:href="#DejaVuSans-65" x="417.619141"/>
     <use xlink:href="#DejaVuSans-72" x="479.142578"/>
     <use xlink:href="#DejaVuSans-73" x="520.255859"/>
     <use xlink:href="#DejaVuSans-20" x="572.355469"/>
     <use xlink:href="#DejaVuSans-65" x="604.142578"/>
     <use xlink:href="#DejaVuSans-76" x="665.666016"/>
     <use xlink:href="#DejaVuSans-6f" x="724.845703"/>
     <use xlink:href="#DejaVuSans-6c" x="786.027344"/>
     <use xlink:href="#DejaVuSans-75" x="813.810547"/>
     <use xlink:href="#DejaVuSans-74" x="877.189453"/>
     <use xlink:href="#DejaVuSans-69" x="916.398438"/>
     <use xlink:href="#DejaVuSans-6f" x="944.181641"/>
     <use xlink:href="#DejaVuSans-6e" x="1005.363281"/>
     <use xlink:href="#DejaVuSans-20" x="1068.742188"/>
     <use xlink:href="#DejaVuSans-64" x="1100.529297"/>
     <use xlink:href="#DejaVuSans-75" x="1164.005859"/>
     <use xlink:href="#DejaVuSans-72" x="1227.384766"/>
     <use xlink:href="#DejaVuSans-69" x="1268.498047"/>
     <use xlink:href="#DejaVuSans-6e" x="1296.28125"/>
     <use xlink:href="#DejaVuSans-67" x="1359.660156"/>
     <use xlink:href="#DejaVuSans-20" x="1423.136719"/>
     <use xlink:href="#DejaVuSans-74" x="1454.923828"/>
     <use xlink:href="#DejaVuSans-72" x="1494.132812"/>
     <use xlink:href="#DejaVuSans-61" x="1535.246094"/>
     <use xlink:href="#DejaVuSans-69" x="1596.525391"/>
     <use xlink:href="#DejaVuSans-6e" x="1624.308594"/>
     <use xlink:href="#DejaVuSans-69" x="1687.6875"/>
     <use xlink:href="#DejaVuSans-6e" x="1715.470703"/>
     <use xlink:href="#DejaVuSans-67" x="1778.849609"/>
    </g>
   </g>
   <g id="legend_1">
    <g id="patch_7">
     <path d="M 442.712812 266.876125 
L 634.757031 266.876125 
Q 638.157031 266.876125 638.157031 263.476125 
L 638.157031 40.600812 
Q 638.157031 37.200812 634.757031 37.200812 
L 442.712812 37.200812 
Q 439.312812 37.200812 439.312812 40.600812 
L 439.312812 263.476125 
Q 439.312812 266.876125 442.712812 266.876125 
z
" style="fill: #ffffff; opacity: 0.8; stroke: #cccccc; stroke-linejoin: miter"/>
    </g>
    <g id="line2d_38">
     <path d="M 446.112812 50.968156 
L 463.112812 50.968156 
L 480.112812 50.968156 
" style="fill: none; stroke: #e41a1c; stroke-width: 1.5; stroke-linecap: square"/>
    </g>
    <g id="text_18">
     <!-- (IRF4, REL) -->
     <g transform="translate(493.712812 56.918156) scale(0.17 -0.17)">
      <defs>
       <path id="DejaVuSans-49" d="M 628 4666 
L 1259 4666 
L 1259 0 
L 628 0 
L 628 4666 
z
" transform="scale(0.015625)"/>
       <path id="DejaVuSans-52" d="M 2841 2188 
Q 3044 2119 3236 1894 
Q 3428 1669 3622 1275 
L 4263 0 
L 3584 0 
L 2988 1197 
Q 2756 1666 2539 1819 
Q 2322 1972 1947 1972 
L 1259 1972 
L 1259 0 
L 628 0 
L 628 4666 
L 2053 4666 
Q 2853 4666 3247 4331 
Q 3641 3997 3641 3322 
Q 3641 2881 3436 2590 
Q 3231 2300 2841 2188 
z
M 1259 4147 
L 1259 2491 
L 2053 2491 
Q 2509 2491 2742 2702 
Q 2975 2913 2975 3322 
Q 2975 3731 2742 3939 
Q 2509 4147 2053 4147 
L 1259 4147 
z
" transform="scale(0.015625)"/>
       <path id="DejaVuSans-46" d="M 628 4666 
L 3309 4666 
L 3309 4134 
L 1259 4134 
L 1259 2759 
L 3109 2759 
L 3109 2228 
L 1259 2228 
L 1259 0 
L 628 0 
L 628 4666 
z
" transform="scale(0.015625)"/>
       <path id="DejaVuSans-4c" d="M 628 4666 
L 1259 4666 
L 1259 531 
L 3531 531 
L 3531 0 
L 628 0 
L 628 4666 
z
" transform="scale(0.015625)"/>
      </defs>
      <use xlink:href="#DejaVuSans-28"/>
      <use xlink:href="#DejaVuSans-49" x="39.013672"/>
      <use xlink:href="#DejaVuSans-52" x="68.505859"/>
      <use xlink:href="#DejaVuSans-46" x="137.988281"/>
      <use xlink:href="#DejaVuSans-34" x="195.507812"/>
      <use xlink:href="#DejaVuSans-2c" x="259.130859"/>
      <use xlink:href="#DejaVuSans-20" x="290.917969"/>
      <use xlink:href="#DejaVuSans-52" x="322.705078"/>
      <use xlink:href="#DejaVuSans-45" x="392.1875"/>
      <use xlink:href="#DejaVuSans-4c" x="455.371094"/>
      <use xlink:href="#DejaVuSans-29" x="511.083984"/>
     </g>
    </g>
    <g id="line2d_39">
     <path d="M 446.112812 75.920969 
L 463.112812 75.920969 
L 480.112812 75.920969 
" style="fill: none; stroke: #377eb8; stroke-width: 1.5; stroke-linecap: square"/>
    </g>
    <g id="text_19">
     <!-- (IRF4, PRDM1) -->
     <g transform="translate(493.712812 81.870969) scale(0.17 -0.17)">
      <defs>
       <path id="DejaVuSans-44" d="M 1259 4147 
L 1259 519 
L 2022 519 
Q 2988 519 3436 956 
Q 3884 1394 3884 2338 
Q 3884 3275 3436 3711 
Q 2988 4147 2022 4147 
L 1259 4147 
z
M 628 4666 
L 1925 4666 
Q 3281 4666 3915 4102 
Q 4550 3538 4550 2338 
Q 4550 1131 3912 565 
Q 3275 0 1925 0 
L 628 0 
L 628 4666 
z
" transform="scale(0.015625)"/>
       <path id="DejaVuSans-4d" d="M 628 4666 
L 1569 4666 
L 2759 1491 
L 3956 4666 
L 4897 4666 
L 4897 0 
L 4281 0 
L 4281 4097 
L 3078 897 
L 2444 897 
L 1241 4097 
L 1241 0 
L 628 0 
L 628 4666 
z
" transform="scale(0.015625)"/>
      </defs>
      <use xlink:href="#DejaVuSans-28"/>
      <use xlink:href="#DejaVuSans-49" x="39.013672"/>
      <use xlink:href="#DejaVuSans-52" x="68.505859"/>
      <use xlink:href="#DejaVuSans-46" x="137.988281"/>
      <use xlink:href="#DejaVuSans-34" x="195.507812"/>
      <use xlink:href="#DejaVuSans-2c" x="259.130859"/>
      <use xlink:href="#DejaVuSans-20" x="290.917969"/>
      <use xlink:href="#DejaVuSans-50" x="322.705078"/>
      <use xlink:href="#DejaVuSans-52" x="383.007812"/>
      <use xlink:href="#DejaVuSans-44" x="452.490234"/>
      <use xlink:href="#DejaVuSans-4d" x="529.492188"/>
      <use xlink:href="#DejaVuSans-31" x="615.771484"/>
      <use xlink:href="#DejaVuSans-29" x="679.394531"/>
     </g>
    </g>
    <g id="line2d_40">
     <path d="M 446.112812 100.873781 
L 463.112812 100.873781 
L 480.112812 100.873781 
" style="fill: none; stroke: #4daf4a; stroke-width: 1.5; stroke-linecap: square"/>
    </g>
    <g id="text_20">
     <!-- (REL, PAX5) -->
     <g transform="translate(493.712812 106.823781) scale(0.17 -0.17)">
      <defs>
       <path id="DejaVuSans-58" d="M 403 4666 
L 1081 4666 
L 2241 2931 
L 3406 4666 
L 4084 4666 
L 2584 2425 
L 4184 0 
L 3506 0 
L 2194 1984 
L 872 0 
L 191 0 
L 1856 2491 
L 403 4666 
z
" transform="scale(0.015625)"/>
      </defs>
      <use xlink:href="#DejaVuSans-28"/>
      <use xlink:href="#DejaVuSans-52" x="39.013672"/>
      <use xlink:href="#DejaVuSans-45" x="108.496094"/>
      <use xlink:href="#DejaVuSans-4c" x="171.679688"/>
      <use xlink:href="#DejaVuSans-2c" x="227.392578"/>
      <use xlink:href="#DejaVuSans-20" x="259.179688"/>
      <use xlink:href="#DejaVuSans-50" x="290.966797"/>
      <use xlink:href="#DejaVuSans-41" x="344.894531"/>
      <use xlink:href="#DejaVuSans-58" x="413.302734"/>
      <use xlink:href="#DejaVuSans-35" x="481.808594"/>
      <use xlink:href="#DejaVuSans-29" x="545.431641"/>
     </g>
    </g>
    <g id="line2d_41">
     <path d="M 446.112812 125.826594 
L 463.112812 125.826594 
L 480.112812 125.826594 
" style="fill: none; stroke: #984ea3; stroke-width: 1.5; stroke-linecap: square"/>
    </g>
    <g id="text_21">
     <!-- (REL, PRDM1) -->
     <g transform="translate(493.712812 131.776594) scale(0.17 -0.17)">
      <use xlink:href="#DejaVuSans-28"/>
      <use xlink:href="#DejaVuSans-52" x="39.013672"/>
      <use xlink:href="#DejaVuSans-45" x="108.496094"/>
      <use xlink:href="#DejaVuSans-4c" x="171.679688"/>
      <use xlink:href="#DejaVuSans-2c" x="227.392578"/>
      <use xlink:href="#DejaVuSans-20" x="259.179688"/>
      <use xlink:href="#DejaVuSans-50" x="290.966797"/>
      <use xlink:href="#DejaVuSans-52" x="351.269531"/>
      <use xlink:href="#DejaVuSans-44" x="420.751953"/>
      <use xlink:href="#DejaVuSans-4d" x="497.753906"/>
      <use xlink:href="#DejaVuSans-31" x="584.033203"/>
      <use xlink:href="#DejaVuSans-29" x="647.65625"/>
     </g>
    </g>
    <g id="line2d_42">
     <path d="M 446.112812 150.779406 
L 463.112812 150.779406 
L 480.112812 150.779406 
" style="fill: none; stroke: #ff7f00; stroke-width: 1.5; stroke-linecap: square"/>
    </g>
    <g id="text_22">
     <!-- (REL, AICDA) -->
     <g transform="translate(493.712812 156.729406) scale(0.17 -0.17)">
      <defs>
       <path id="DejaVuSans-43" d="M 4122 4306 
L 4122 3641 
Q 3803 3938 3442 4084 
Q 3081 4231 2675 4231 
Q 1875 4231 1450 3742 
Q 1025 3253 1025 2328 
Q 1025 1406 1450 917 
Q 1875 428 2675 428 
Q 3081 428 3442 575 
Q 3803 722 4122 1019 
L 4122 359 
Q 3791 134 3420 21 
Q 3050 -91 2638 -91 
Q 1578 -91 968 557 
Q 359 1206 359 2328 
Q 359 3453 968 4101 
Q 1578 4750 2638 4750 
Q 3056 4750 3426 4639 
Q 3797 4528 4122 4306 
z
" transform="scale(0.015625)"/>
      </defs>
      <use xlink:href="#DejaVuSans-28"/>
      <use xlink:href="#DejaVuSans-52" x="39.013672"/>
      <use xlink:href="#DejaVuSans-45" x="108.496094"/>
      <use xlink:href="#DejaVuSans-4c" x="171.679688"/>
      <use xlink:href="#DejaVuSans-2c" x="227.392578"/>
      <use xlink:href="#DejaVuSans-20" x="259.179688"/>
      <use xlink:href="#DejaVuSans-41" x="290.966797"/>
      <use xlink:href="#DejaVuSans-49" x="359.375"/>
      <use xlink:href="#DejaVuSans-43" x="388.867188"/>
      <use xlink:href="#DejaVuSans-44" x="458.691406"/>
      <use xlink:href="#DejaVuSans-41" x="533.943359"/>
      <use xlink:href="#DejaVuSans-29" x="602.351562"/>
     </g>
    </g>
    <g id="line2d_43">
     <path d="M 446.112812 175.732219 
L 463.112812 175.732219 
L 480.112812 175.732219 
" style="fill: none; stroke: #ffff33; stroke-width: 1.5; stroke-linecap: square"/>
    </g>
    <g id="text_23">
     <!-- (PAX5, RELA) -->
     <g transform="translate(493.712812 181.682219) scale(0.17 -0.17)">
      <use xlink:href="#DejaVuSans-28"/>
      <use xlink:href="#DejaVuSans-50" x="39.013672"/>
      <use xlink:href="#DejaVuSans-41" x="92.941406"/>
      <use xlink:href="#DejaVuSans-58" x="161.349609"/>
      <use xlink:href="#DejaVuSans-35" x="229.855469"/>
      <use xlink:href="#DejaVuSans-2c" x="293.478516"/>
      <use xlink:href="#DejaVuSans-20" x="325.265625"/>
      <use xlink:href="#DejaVuSans-52" x="357.052734"/>
      <use xlink:href="#DejaVuSans-45" x="426.535156"/>
      <use xlink:href="#DejaVuSans-4c" x="489.71875"/>
      <use xlink:href="#DejaVuSans-41" x="547.681641"/>
      <use xlink:href="#DejaVuSans-29" x="616.089844"/>
     </g>
    </g>
    <g id="line2d_44">
     <path d="M 446.112812 200.685031 
L 463.112812 200.685031 
L 480.112812 200.685031 
" style="fill: none; stroke: #a65628; stroke-width: 1.5; stroke-linecap: square"/>
    </g>
    <g id="text_24">
     <!-- (PAX5, PRDM1) -->
     <g transform="translate(493.712812 206.635031) scale(0.17 -0.17)">
      <use xlink:href="#DejaVuSans-28"/>
      <use xlink:href="#DejaVuSans-50" x="39.013672"/>
      <use xlink:href="#DejaVuSans-41" x="92.941406"/>
      <use xlink:href="#DejaVuSans-58" x="161.349609"/>
      <use xlink:href="#DejaVuSans-35" x="229.855469"/>
      <use xlink:href="#DejaVuSans-2c" x="293.478516"/>
      <use xlink:href="#DejaVuSans-20" x="325.265625"/>
      <use xlink:href="#DejaVuSans-50" x="357.052734"/>
      <use xlink:href="#DejaVuSans-52" x="417.355469"/>
      <use xlink:href="#DejaVuSans-44" x="486.837891"/>
      <use xlink:href="#DejaVuSans-4d" x="563.839844"/>
      <use xlink:href="#DejaVuSans-31" x="650.119141"/>
      <use xlink:href="#DejaVuSans-29" x="713.742188"/>
     </g>
    </g>
    <g id="line2d_45">
     <path d="M 446.112812 225.637844 
L 463.112812 225.637844 
L 480.112812 225.637844 
" style="fill: none; stroke: #f781bf; stroke-width: 1.5; stroke-linecap: square"/>
    </g>
    <g id="text_25">
     <!-- (PAX5, AICDA) -->
     <g transform="translate(493.712812 231.587844) scale(0.17 -0.17)">
      <use xlink:href="#DejaVuSans-28"/>
      <use xlink:href="#DejaVuSans-50" x="39.013672"/>
      <use xlink:href="#DejaVuSans-41" x="92.941406"/>
      <use xlink:href="#DejaVuSans-58" x="161.349609"/>
      <use xlink:href="#DejaVuSans-35" x="229.855469"/>
      <use xlink:href="#DejaVuSans-2c" x="293.478516"/>
      <use xlink:href="#DejaVuSans-20" x="325.265625"/>
      <use xlink:href="#DejaVuSans-41" x="357.052734"/>
      <use xlink:href="#DejaVuSans-49" x="425.460938"/>
      <use xlink:href="#DejaVuSans-43" x="454.953125"/>
      <use xlink:href="#DejaVuSans-44" x="524.777344"/>
      <use xlink:href="#DejaVuSans-41" x="600.029297"/>
      <use xlink:href="#DejaVuSans-29" x="668.4375"/>
     </g>
    </g>
    <g id="line2d_46">
     <path d="M 446.112812 250.590656 
L 463.112812 250.590656 
L 480.112812 250.590656 
" style="fill: none; stroke: #999999; stroke-width: 1.5; stroke-linecap: square"/>
    </g>
    <g id="text_26">
     <!-- (PRDM1, AICDA) -->
     <g transform="translate(493.712812 256.540656) scale(0.17 -0.17)">
      <use xlink:href="#DejaVuSans-28"/>
      <use xlink:href="#DejaVuSans-50" x="39.013672"/>
      <use xlink:href="#DejaVuSans-52" x="99.316406"/>
      <use xlink:href="#DejaVuSans-44" x="168.798828"/>
      <use xlink:href="#DejaVuSans-4d" x="245.800781"/>
      <use xlink:href="#DejaVuSans-31" x="332.080078"/>
      <use xlink:href="#DejaVuSans-2c" x="395.703125"/>
      <use xlink:href="#DejaVuSans-20" x="427.490234"/>
      <use xlink:href="#DejaVuSans-41" x="459.277344"/>
      <use xlink:href="#DejaVuSans-49" x="527.685547"/>
      <use xlink:href="#DejaVuSans-43" x="557.177734"/>
      <use xlink:href="#DejaVuSans-44" x="627.001953"/>
      <use xlink:href="#DejaVuSans-41" x="702.253906"/>
      <use xlink:href="#DejaVuSans-29" x="770.662109"/>
     </g>
    </g>
   </g>
  </g>
 </g>
 <defs>
  <clipPath id="p66e69ef2ee">
   <rect x="88.657031" y="28.700812" width="558" height="332.64"/>
  </clipPath>
 </defs>
</svg>
